<mxfile host="65bd71144e">
    <diagram id="B4KFkQ25G6b50r8x1pap" name="Page-1">
        <mxGraphModel dx="1867" dy="352" grid="1" gridSize="10" guides="1" tooltips="1" connect="1" arrows="1" fold="1" page="1" pageScale="1" pageWidth="850" pageHeight="1100" background="#DAD2D8" math="0" shadow="0">
            <root>
                <mxCell id="0"/>
                <mxCell id="1" parent="0"/>
                <mxCell id="RN8sHEYMvWGkv_5H0akw-8" value="" style="edgeStyle=orthogonalEdgeStyle;curved=0;rounded=1;sketch=0;orthogonalLoop=1;jettySize=auto;html=1;fontColor=#143642;strokeColor=#A8201A;fillColor=#FAE5C7;" parent="1" source="RN8sHEYMvWGkv_5H0akw-1" target="RN8sHEYMvWGkv_5H0akw-7" edge="1">
                    <mxGeometry relative="1" as="geometry"/>
                </mxCell>
                <mxCell id="RN8sHEYMvWGkv_5H0akw-1" value="Start" style="ellipse;whiteSpace=wrap;html=1;rounded=0;sketch=0;fontColor=#143642;strokeColor=#0F8B8D;fillColor=#FAE5C7;" parent="1" vertex="1">
                    <mxGeometry x="330" y="10" width="140" height="70" as="geometry"/>
                </mxCell>
                <mxCell id="RN8sHEYMvWGkv_5H0akw-13" value="" style="edgeStyle=orthogonalEdgeStyle;curved=0;rounded=1;sketch=0;orthogonalLoop=1;jettySize=auto;html=1;fontColor=#143642;strokeColor=#A8201A;fillColor=#FAE5C7;entryX=0.5;entryY=0;entryDx=0;entryDy=0;" parent="1" source="RN8sHEYMvWGkv_5H0akw-7" target="k-RO1JFTQZMesgFKk2mv-1" edge="1">
                    <mxGeometry relative="1" as="geometry">
                        <mxPoint x="400" y="210" as="targetPoint"/>
                    </mxGeometry>
                </mxCell>
                <mxCell id="RN8sHEYMvWGkv_5H0akw-7" value="Инструкция, ввод пользователя&lt;br&gt;(main)" style="html=1;rounded=0;sketch=0;fontColor=#143642;strokeColor=#0F8B8D;fillColor=#FAE5C7;" parent="1" vertex="1">
                    <mxGeometry x="306.25" y="120" width="187.5" height="50" as="geometry"/>
                </mxCell>
                <mxCell id="RN8sHEYMvWGkv_5H0akw-16" value="" style="edgeStyle=orthogonalEdgeStyle;curved=0;rounded=1;sketch=0;orthogonalLoop=1;jettySize=auto;html=1;fontColor=#143642;strokeColor=#A8201A;fillColor=#FAE5C7;exitX=0.5;exitY=1;exitDx=0;exitDy=0;" parent="1" source="RN8sHEYMvWGkv_5H0akw-10" target="RN8sHEYMvWGkv_5H0akw-15" edge="1">
                    <mxGeometry relative="1" as="geometry">
                        <mxPoint x="415" y="505" as="sourcePoint"/>
                    </mxGeometry>
                </mxCell>
                <mxCell id="RN8sHEYMvWGkv_5H0akw-10" value="Преобразование полных дробей" style="html=1;rounded=0;sketch=0;fontColor=#143642;strokeColor=#0F8B8D;fillColor=#FAE5C7;" parent="1" vertex="1">
                    <mxGeometry x="300" y="310" width="200" height="90" as="geometry"/>
                </mxCell>
                <mxCell id="RN8sHEYMvWGkv_5H0akw-24" value="" style="edgeStyle=orthogonalEdgeStyle;curved=0;rounded=1;sketch=0;orthogonalLoop=1;jettySize=auto;html=1;fontColor=#143642;strokeColor=#A8201A;fillColor=#FAE5C7;" parent="1" source="RN8sHEYMvWGkv_5H0akw-15" target="RN8sHEYMvWGkv_5H0akw-61" edge="1">
                    <mxGeometry relative="1" as="geometry"/>
                </mxCell>
                <mxCell id="RN8sHEYMvWGkv_5H0akw-15" value="Разделитель мнимой и вещественной части выражения" style="rounded=0;whiteSpace=wrap;html=1;sketch=0;fontColor=#143642;strokeColor=#0F8B8D;fillColor=#FAE5C7;" parent="1" vertex="1">
                    <mxGeometry x="300" y="480" width="200" height="60" as="geometry"/>
                </mxCell>
                <mxCell id="RN8sHEYMvWGkv_5H0akw-18" value="&lt;font style=&quot;font-size: 21px;&quot;&gt;Татьяна&lt;/font&gt;" style="text;strokeColor=none;fillColor=none;html=1;fontSize=24;fontStyle=1;verticalAlign=middle;align=center;rounded=0;sketch=0;fontColor=#143642;" parent="1" vertex="1">
                    <mxGeometry x="500" y="330" width="100" height="40" as="geometry"/>
                </mxCell>
                <mxCell id="RN8sHEYMvWGkv_5H0akw-37" value="" style="edgeStyle=orthogonalEdgeStyle;curved=0;rounded=1;sketch=0;orthogonalLoop=1;jettySize=auto;html=1;fontSize=20;fontColor=#143642;strokeColor=#A8201A;fillColor=#FAE5C7;entryX=0.002;entryY=0.103;entryDx=0;entryDy=0;entryPerimeter=0;" parent="1" source="RN8sHEYMvWGkv_5H0akw-23" target="RN8sHEYMvWGkv_5H0akw-72" edge="1">
                    <mxGeometry relative="1" as="geometry">
                        <mxPoint x="535" y="815" as="targetPoint"/>
                    </mxGeometry>
                </mxCell>
                <mxCell id="RN8sHEYMvWGkv_5H0akw-23" value="Убирает мнимые единицы,учитывает степень" style="rounded=0;whiteSpace=wrap;html=1;sketch=0;fontColor=#143642;strokeColor=#0F8B8D;fillColor=#FAE5C7;strokeWidth=2;" parent="1" vertex="1">
                    <mxGeometry x="-25" y="690" width="160" height="60" as="geometry"/>
                </mxCell>
                <mxCell id="RN8sHEYMvWGkv_5H0akw-25" value="&lt;font style=&quot;font-size: 14px&quot;&gt;&lt;span style=&quot;color: rgb(212 , 212 , 212) ; font-family: &amp;#34;consolas&amp;#34; , &amp;#34;courier new&amp;#34; , monospace ; font-weight: 400 ; letter-spacing: normal ; text-align: center ; text-indent: 0px ; text-transform: none ; word-spacing: 0px ; background-color: rgb(30 , 30 , 30) ; float: none ; display: inline&quot;&gt;&lt;font style=&quot;font-size: 14px&quot;&gt;&amp;nbsp;'21/4*6-63-3/70:5/6+93/23','3*i+1:i+&lt;/font&gt;&lt;/span&gt;&lt;span style=&quot;color: rgb(212 , 212 , 212) ; font-family: &amp;#34;consolas&amp;#34; , &amp;#34;courier new&amp;#34; , monospace ; text-align: center ; background-color: rgb(30 , 30 , 30)&quot;&gt;&lt;font style=&quot;font-size: 14px&quot;&gt;10*i*&lt;/font&gt;&lt;/span&gt;&lt;span style=&quot;color: rgb(212 , 212 , 212) ; font-family: &amp;#34;consolas&amp;#34; , &amp;#34;courier new&amp;#34; , monospace ; text-align: center ; background-color: rgb(30 , 30 , 30)&quot;&gt;2:3*i+21/2*i*2*i'&lt;/span&gt;&lt;/font&gt;" style="text;whiteSpace=wrap;html=1;fontColor=#143642;" parent="1" vertex="1">
                    <mxGeometry x="-180" y="470" width="460" height="60" as="geometry"/>
                </mxCell>
                <mxCell id="k-RO1JFTQZMesgFKk2mv-18" value="" style="edgeStyle=orthogonalEdgeStyle;rounded=0;orthogonalLoop=1;jettySize=auto;html=1;fontSize=21;fontColor=#000000;strokeColor=#FF3333;entryX=1;entryY=0.5;entryDx=0;entryDy=0;strokeWidth=2;" parent="1" source="RN8sHEYMvWGkv_5H0akw-28" target="k-RO1JFTQZMesgFKk2mv-15" edge="1">
                    <mxGeometry relative="1" as="geometry">
                        <Array as="points">
                            <mxPoint x="1190" y="1190"/>
                            <mxPoint x="1190" y="155"/>
                        </Array>
                    </mxGeometry>
                </mxCell>
                <mxCell id="RN8sHEYMvWGkv_5H0akw-28" value="&lt;font style=&quot;font-size: 16px;&quot;&gt;Выделение полной части дроби&lt;/font&gt;" style="rounded=0;whiteSpace=wrap;html=1;sketch=0;fontSize=20;fontColor=#143642;strokeColor=#0F8B8D;fillColor=#FAE5C7;" parent="1" vertex="1">
                    <mxGeometry x="367.5" y="1140" width="225" height="100" as="geometry"/>
                </mxCell>
                <mxCell id="RN8sHEYMvWGkv_5H0akw-31" value="&lt;span style=&quot;font-family: Helvetica; font-size: 20px; font-style: normal; font-variant-ligatures: normal; font-variant-caps: normal; font-weight: 400; letter-spacing: normal; orphans: 2; text-align: center; text-indent: 0px; text-transform: none; widows: 2; word-spacing: 0px; -webkit-text-stroke-width: 0px; text-decoration-thickness: initial; text-decoration-style: initial; text-decoration-color: initial; float: none; background-color: rgb(0, 0, 0); display: inline !important;&quot;&gt;&lt;font color=&quot;#d4d4d4&quot;&gt;clean_equation[1]&lt;/font&gt;&lt;/span&gt;" style="text;whiteSpace=wrap;html=1;fontSize=20;fontColor=#143642;" parent="1" vertex="1">
                    <mxGeometry x="-150" y="650" width="180" height="40" as="geometry"/>
                </mxCell>
                <mxCell id="k-RO1JFTQZMesgFKk2mv-10" value="" style="edgeStyle=orthogonalEdgeStyle;rounded=0;orthogonalLoop=1;jettySize=auto;html=1;fontSize=16;fontColor=#000000;strokeColor=#FF3333;" parent="1" source="RN8sHEYMvWGkv_5H0akw-35" target="RN8sHEYMvWGkv_5H0akw-28" edge="1">
                    <mxGeometry relative="1" as="geometry"/>
                </mxCell>
                <mxCell id="RN8sHEYMvWGkv_5H0akw-35" value="Вычислитель" style="rounded=0;whiteSpace=wrap;html=1;sketch=0;fontSize=20;fontColor=#143642;strokeColor=#0F8B8D;fillColor=#FAE5C7;" parent="1" vertex="1">
                    <mxGeometry x="345" y="980" width="270" height="60" as="geometry"/>
                </mxCell>
                <mxCell id="RN8sHEYMvWGkv_5H0akw-39" value="&lt;span style=&quot;font-size: 14px ; color: rgb(212 , 212 , 212) ; font-family: &amp;#34;consolas&amp;#34; , &amp;#34;courier new&amp;#34; , monospace ; text-align: center ; background-color: rgb(30 , 30 , 30)&quot;&gt;'3*i+1:i+&lt;/span&gt;&lt;span style=&quot;font-size: 14px ; color: rgb(212 , 212 , 212) ; font-family: &amp;#34;consolas&amp;#34; , &amp;#34;courier new&amp;#34; , monospace ; text-align: center ; background-color: rgb(30 , 30 , 30)&quot;&gt;10*i*&lt;/span&gt;&lt;span style=&quot;font-size: 14px ; color: rgb(212 , 212 , 212) ; font-family: &amp;#34;consolas&amp;#34; , &amp;#34;courier new&amp;#34; , monospace ; text-align: center ; background-color: rgb(30 , 30 , 30)&quot;&gt;2:3*i+21/2*i*2*i'&lt;/span&gt;" style="text;whiteSpace=wrap;html=1;fontSize=20;fontColor=#143642;" parent="1" vertex="1">
                    <mxGeometry x="70" y="645" width="180" height="40" as="geometry"/>
                </mxCell>
                <mxCell id="RN8sHEYMvWGkv_5H0akw-42" value="&lt;b&gt;Геннадий&lt;/b&gt;" style="text;html=1;align=center;verticalAlign=middle;resizable=0;points=[];autosize=1;strokeColor=none;fillColor=none;fontSize=20;fontColor=#143642;" parent="1" vertex="1">
                    <mxGeometry x="425" y="945" width="110" height="30" as="geometry"/>
                </mxCell>
                <mxCell id="RN8sHEYMvWGkv_5H0akw-43" value="&lt;b&gt;Антон&lt;/b&gt;" style="text;html=1;align=center;verticalAlign=middle;resizable=0;points=[];autosize=1;strokeColor=none;fillColor=none;fontSize=20;fontColor=#143642;" parent="1" vertex="1">
                    <mxGeometry x="505" y="120" width="80" height="30" as="geometry"/>
                </mxCell>
                <mxCell id="RN8sHEYMvWGkv_5H0akw-44" value="Логирование" style="rounded=0;whiteSpace=wrap;html=1;sketch=0;fontSize=20;fontColor=#143642;strokeColor=#0F8B8D;fillColor=#FAE5C7;" parent="1" vertex="1">
                    <mxGeometry x="895" y="310" width="120" height="65" as="geometry"/>
                </mxCell>
                <mxCell id="RN8sHEYMvWGkv_5H0akw-45" value="" style="shape=flexArrow;endArrow=classic;startArrow=classic;html=1;rounded=1;sketch=0;fontSize=20;fontColor=#143642;strokeColor=#A8201A;fillColor=#FAE5C7;curved=0;exitX=0.5;exitY=1;exitDx=0;exitDy=0;entryX=0.5;entryY=0;entryDx=0;entryDy=0;" parent="1" source="k-RO1JFTQZMesgFKk2mv-15" target="RN8sHEYMvWGkv_5H0akw-44" edge="1">
                    <mxGeometry width="100" height="100" relative="1" as="geometry">
                        <mxPoint x="385" y="975" as="sourcePoint"/>
                        <mxPoint x="710" y="520" as="targetPoint"/>
                    </mxGeometry>
                </mxCell>
                <mxCell id="RN8sHEYMvWGkv_5H0akw-46" value="&lt;b&gt;Евгений&lt;/b&gt;" style="text;html=1;strokeColor=none;fillColor=none;align=center;verticalAlign=middle;whiteSpace=wrap;rounded=0;sketch=0;fontSize=20;fontColor=#143642;" parent="1" vertex="1">
                    <mxGeometry x="505" y="487.5" width="120" height="25" as="geometry"/>
                </mxCell>
                <mxCell id="RN8sHEYMvWGkv_5H0akw-47" value="Сергей" style="text;strokeColor=none;fillColor=none;html=1;fontSize=24;fontStyle=1;verticalAlign=middle;align=center;rounded=0;sketch=0;fontColor=#143642;" parent="1" vertex="1">
                    <mxGeometry x="-140" y="700" width="100" height="40" as="geometry"/>
                </mxCell>
                <mxCell id="RN8sHEYMvWGkv_5H0akw-49" value="&lt;font style=&quot;font-size: 15px&quot;&gt;&lt;span style=&quot;color: rgb(212 , 212 , 212) ; font-family: &amp;#34;consolas&amp;#34; , &amp;#34;courier new&amp;#34; , monospace ; font-style: normal ; font-weight: 400 ; letter-spacing: normal ; text-align: center ; text-indent: 0px ; text-transform: none ; word-spacing: 0px ; background-color: rgb(30 , 30 , 30) ; float: none ; display: inline&quot;&gt;'10*2:3-21/2*2','&lt;/span&gt;&lt;span style=&quot;color: rgb(212 , 212 , 212) ; font-family: &amp;#34;consolas&amp;#34; , &amp;#34;courier new&amp;#34; , monospace ; text-align: center ; background-color: rgb(30 , 30 , 30)&quot;&gt;3-1'&lt;/span&gt;&lt;/font&gt;" style="text;whiteSpace=wrap;html=1;fontSize=20;fontColor=#143642;" parent="1" vertex="1">
                    <mxGeometry x="136" y="730" width="205" height="40" as="geometry"/>
                </mxCell>
                <mxCell id="RN8sHEYMvWGkv_5H0akw-50" value="real,image" style="text;html=1;strokeColor=none;fillColor=none;align=center;verticalAlign=middle;whiteSpace=wrap;rounded=0;sketch=0;fontSize=20;fontColor=#143642;" parent="1" vertex="1">
                    <mxGeometry x="180" y="760" width="60" height="30" as="geometry"/>
                </mxCell>
                <mxCell id="RN8sHEYMvWGkv_5H0akw-71" value="" style="edgeStyle=orthogonalEdgeStyle;curved=0;rounded=1;sketch=0;orthogonalLoop=1;jettySize=auto;html=1;fontSize=20;fontColor=#143642;strokeColor=#A8201A;strokeWidth=1;fillColor=#FAE5C7;" parent="1" source="RN8sHEYMvWGkv_5H0akw-61" target="RN8sHEYMvWGkv_5H0akw-23" edge="1">
                    <mxGeometry relative="1" as="geometry"/>
                </mxCell>
                <mxCell id="RN8sHEYMvWGkv_5H0akw-61" value=" main" style="shape=table;startSize=30;container=1;collapsible=0;childLayout=tableLayout;fixedRows=1;rowLines=0;fontStyle=1;rounded=0;sketch=0;fontSize=20;fontColor=#143642;strokeColor=#0F8B8D;fillColor=#FAE5C7;" parent="1" vertex="1">
                    <mxGeometry x="-180" y="550" width="470" height="95" as="geometry"/>
                </mxCell>
                <mxCell id="RN8sHEYMvWGkv_5H0akw-62" value="" style="shape=tableRow;horizontal=0;startSize=0;swimlaneHead=0;swimlaneBody=0;top=0;left=0;bottom=0;right=0;collapsible=0;dropTarget=0;fillColor=none;points=[[0,0.5],[1,0.5]];portConstraint=eastwest;rounded=0;sketch=0;fontSize=20;fontColor=#143642;strokeColor=#0F8B8D;" parent="RN8sHEYMvWGkv_5H0akw-61" vertex="1">
                    <mxGeometry y="30" width="470" height="30" as="geometry"/>
                </mxCell>
                <mxCell id="RN8sHEYMvWGkv_5H0akw-63" value="1" style="shape=partialRectangle;html=1;whiteSpace=wrap;connectable=0;fillColor=none;top=0;left=0;bottom=0;right=0;overflow=hidden;pointerEvents=1;rounded=0;sketch=0;fontSize=20;fontColor=#143642;strokeColor=#0F8B8D;" parent="RN8sHEYMvWGkv_5H0akw-62" vertex="1">
                    <mxGeometry width="105" height="30" as="geometry">
                        <mxRectangle width="105" height="30" as="alternateBounds"/>
                    </mxGeometry>
                </mxCell>
                <mxCell id="RN8sHEYMvWGkv_5H0akw-64" value="&lt;span style=&quot;text-align: center;&quot;&gt;clean_equation = return Разделителя&lt;/span&gt;" style="shape=partialRectangle;html=1;whiteSpace=wrap;connectable=0;fillColor=none;top=0;left=0;bottom=0;right=0;align=left;spacingLeft=6;overflow=hidden;rounded=0;sketch=0;fontSize=20;fontColor=#143642;strokeColor=#0F8B8D;" parent="RN8sHEYMvWGkv_5H0akw-62" vertex="1">
                    <mxGeometry x="105" width="365" height="30" as="geometry">
                        <mxRectangle width="365" height="30" as="alternateBounds"/>
                    </mxGeometry>
                </mxCell>
                <mxCell id="RN8sHEYMvWGkv_5H0akw-65" value="" style="shape=tableRow;horizontal=0;startSize=0;swimlaneHead=0;swimlaneBody=0;top=0;left=0;bottom=0;right=0;collapsible=0;dropTarget=0;fillColor=none;points=[[0,0.5],[1,0.5]];portConstraint=eastwest;rounded=0;sketch=0;fontSize=20;fontColor=#143642;strokeColor=#0F8B8D;" parent="RN8sHEYMvWGkv_5H0akw-61" vertex="1">
                    <mxGeometry y="60" width="470" height="30" as="geometry"/>
                </mxCell>
                <mxCell id="RN8sHEYMvWGkv_5H0akw-66" value="2" style="shape=partialRectangle;html=1;whiteSpace=wrap;connectable=0;fillColor=none;top=0;left=0;bottom=0;right=0;overflow=hidden;rounded=0;sketch=0;fontSize=20;fontColor=#143642;strokeColor=#0F8B8D;" parent="RN8sHEYMvWGkv_5H0akw-65" vertex="1">
                    <mxGeometry width="105" height="30" as="geometry">
                        <mxRectangle width="105" height="30" as="alternateBounds"/>
                    </mxGeometry>
                </mxCell>
                <mxCell id="RN8sHEYMvWGkv_5H0akw-67" value="&lt;span style=&quot;text-align: center;&quot;&gt;clean_real = clean_equation[0]&lt;/span&gt;" style="shape=partialRectangle;html=1;whiteSpace=wrap;connectable=0;fillColor=none;top=0;left=0;bottom=0;right=0;align=left;spacingLeft=6;overflow=hidden;rounded=0;sketch=0;fontSize=20;fontColor=#143642;strokeColor=#0F8B8D;" parent="RN8sHEYMvWGkv_5H0akw-65" vertex="1">
                    <mxGeometry x="105" width="365" height="30" as="geometry">
                        <mxRectangle width="365" height="30" as="alternateBounds"/>
                    </mxGeometry>
                </mxCell>
                <mxCell id="RN8sHEYMvWGkv_5H0akw-83" value="" style="edgeStyle=orthogonalEdgeStyle;curved=0;rounded=1;sketch=0;orthogonalLoop=1;jettySize=auto;html=1;fontSize=20;fontColor=#143642;strokeColor=#A8201A;strokeWidth=1;fillColor=#FAE5C7;" parent="1" source="RN8sHEYMvWGkv_5H0akw-72" edge="1">
                    <mxGeometry relative="1" as="geometry">
                        <mxPoint x="550" y="980" as="targetPoint"/>
                    </mxGeometry>
                </mxCell>
                <mxCell id="RN8sHEYMvWGkv_5H0akw-72" value=" main" style="shape=table;startSize=30;container=1;collapsible=0;childLayout=tableLayout;fixedRows=1;rowLines=0;fontStyle=1;rounded=0;sketch=0;fontSize=20;fontColor=#143642;strokeColor=#0F8B8D;fillColor=#FAE5C7;" parent="1" vertex="1">
                    <mxGeometry x="345" y="665" width="410" height="170" as="geometry"/>
                </mxCell>
                <mxCell id="RN8sHEYMvWGkv_5H0akw-73" value="" style="shape=tableRow;horizontal=0;startSize=0;swimlaneHead=0;swimlaneBody=0;top=0;left=0;bottom=0;right=0;collapsible=0;dropTarget=0;fillColor=none;points=[[0,0.5],[1,0.5]];portConstraint=eastwest;rounded=0;sketch=0;fontSize=20;fontColor=#143642;strokeColor=#0F8B8D;" parent="RN8sHEYMvWGkv_5H0akw-72" vertex="1">
                    <mxGeometry y="30" width="410" height="60" as="geometry"/>
                </mxCell>
                <mxCell id="RN8sHEYMvWGkv_5H0akw-74" value="1" style="shape=partialRectangle;html=1;whiteSpace=wrap;connectable=0;fillColor=none;top=0;left=0;bottom=0;right=0;overflow=hidden;pointerEvents=1;rounded=0;sketch=0;fontSize=20;fontColor=#143642;strokeColor=#0F8B8D;" parent="RN8sHEYMvWGkv_5H0akw-73" vertex="1">
                    <mxGeometry width="92" height="60" as="geometry">
                        <mxRectangle width="92" height="60" as="alternateBounds"/>
                    </mxGeometry>
                </mxCell>
                <mxCell id="RN8sHEYMvWGkv_5H0akw-75" value="&lt;span style=&quot;text-align: center;&quot;&gt;image_parts = return модуля мнимой единицы&lt;br&gt;&lt;br&gt;&lt;/span&gt;" style="shape=partialRectangle;html=1;whiteSpace=wrap;connectable=0;fillColor=none;top=0;left=0;bottom=0;right=0;align=left;spacingLeft=6;overflow=hidden;rounded=0;sketch=0;fontSize=20;fontColor=#143642;strokeColor=#0F8B8D;" parent="RN8sHEYMvWGkv_5H0akw-73" vertex="1">
                    <mxGeometry x="92" width="318" height="60" as="geometry">
                        <mxRectangle width="318" height="60" as="alternateBounds"/>
                    </mxGeometry>
                </mxCell>
                <mxCell id="RN8sHEYMvWGkv_5H0akw-76" value="" style="shape=tableRow;horizontal=0;startSize=0;swimlaneHead=0;swimlaneBody=0;top=0;left=0;bottom=0;right=0;collapsible=0;dropTarget=0;fillColor=none;points=[[0,0.5],[1,0.5]];portConstraint=eastwest;rounded=0;sketch=0;fontSize=20;fontColor=#143642;strokeColor=#0F8B8D;" parent="RN8sHEYMvWGkv_5H0akw-72" vertex="1">
                    <mxGeometry y="90" width="410" height="30" as="geometry"/>
                </mxCell>
                <mxCell id="RN8sHEYMvWGkv_5H0akw-77" value="2" style="shape=partialRectangle;html=1;whiteSpace=wrap;connectable=0;fillColor=none;top=0;left=0;bottom=0;right=0;overflow=hidden;rounded=0;sketch=0;fontSize=20;fontColor=#143642;strokeColor=#0F8B8D;" parent="RN8sHEYMvWGkv_5H0akw-76" vertex="1">
                    <mxGeometry width="92" height="30" as="geometry">
                        <mxRectangle width="92" height="30" as="alternateBounds"/>
                    </mxGeometry>
                </mxCell>
                <mxCell id="RN8sHEYMvWGkv_5H0akw-78" value="&lt;span style=&quot;text-align: center;&quot;&gt;clean_image =&lt;/span&gt;&lt;span style=&quot;text-align: center;&quot;&gt;&amp;nbsp;image_parts[1]&lt;br&gt;&lt;br&gt;&lt;br&gt;&lt;/span&gt;" style="shape=partialRectangle;html=1;whiteSpace=wrap;connectable=0;fillColor=none;top=0;left=0;bottom=0;right=0;align=left;spacingLeft=6;overflow=hidden;rounded=0;sketch=0;fontSize=20;fontColor=#143642;strokeColor=#0F8B8D;" parent="RN8sHEYMvWGkv_5H0akw-76" vertex="1">
                    <mxGeometry x="92" width="318" height="30" as="geometry">
                        <mxRectangle width="318" height="30" as="alternateBounds"/>
                    </mxGeometry>
                </mxCell>
                <mxCell id="RN8sHEYMvWGkv_5H0akw-79" value="3" style="shape=partialRectangle;html=1;whiteSpace=wrap;connectable=0;fillColor=none;top=0;left=0;bottom=0;right=0;overflow=hidden;rounded=0;sketch=0;fontSize=20;fontColor=#143642;strokeColor=#0F8B8D;" parent="1" vertex="1">
                    <mxGeometry x="341" y="795" width="99" height="30" as="geometry">
                        <mxRectangle width="99" height="30" as="alternateBounds"/>
                    </mxGeometry>
                </mxCell>
                <mxCell id="RN8sHEYMvWGkv_5H0akw-81" value="&lt;span style=&quot;text-align: center;&quot;&gt;clean_real +=&lt;/span&gt;&lt;span style=&quot;text-align: center;&quot;&gt;&amp;nbsp;image_parts[0]&lt;br&gt;&lt;br&gt;&lt;br&gt;&lt;/span&gt;" style="shape=partialRectangle;html=1;whiteSpace=wrap;connectable=0;fillColor=none;top=0;left=0;bottom=0;right=0;align=left;spacingLeft=6;overflow=hidden;rounded=0;sketch=0;fontSize=20;fontColor=#143642;strokeColor=#0F8B8D;" parent="1" vertex="1">
                    <mxGeometry x="440" y="795" width="341" height="30" as="geometry">
                        <mxRectangle width="341" height="30" as="alternateBounds"/>
                    </mxGeometry>
                </mxCell>
                <mxCell id="RN8sHEYMvWGkv_5H0akw-89" value=" main" style="shape=table;startSize=30;container=1;collapsible=0;childLayout=tableLayout;fixedRows=1;rowLines=0;fontStyle=1;rounded=0;sketch=0;fontSize=20;fontColor=#143642;strokeColor=#0F8B8D;fillColor=#FAE5C7;" parent="1" vertex="1">
                    <mxGeometry x="680" y="930" width="425" height="150" as="geometry"/>
                </mxCell>
                <mxCell id="RN8sHEYMvWGkv_5H0akw-90" value="" style="shape=tableRow;horizontal=0;startSize=0;swimlaneHead=0;swimlaneBody=0;top=0;left=0;bottom=0;right=0;collapsible=0;dropTarget=0;fillColor=none;points=[[0,0.5],[1,0.5]];portConstraint=eastwest;rounded=0;sketch=0;fontSize=20;fontColor=#143642;strokeColor=#0F8B8D;" parent="RN8sHEYMvWGkv_5H0akw-89" vertex="1">
                    <mxGeometry y="30" width="425" height="70" as="geometry"/>
                </mxCell>
                <mxCell id="RN8sHEYMvWGkv_5H0akw-91" value="1" style="shape=partialRectangle;html=1;whiteSpace=wrap;connectable=0;fillColor=none;top=0;left=0;bottom=0;right=0;overflow=hidden;pointerEvents=1;rounded=0;sketch=0;fontSize=20;fontColor=#143642;strokeColor=#0F8B8D;" parent="RN8sHEYMvWGkv_5H0akw-90" vertex="1">
                    <mxGeometry width="95" height="70" as="geometry">
                        <mxRectangle width="95" height="70" as="alternateBounds"/>
                    </mxGeometry>
                </mxCell>
                <mxCell id="RN8sHEYMvWGkv_5H0akw-92" value="&lt;span style=&quot;text-align: center;&quot;&gt;clean_real =&lt;/span&gt;&lt;span style=&quot;text-align: center;&quot;&gt;&amp;nbsp;return вычислителя в первый раз&lt;br&gt;&lt;/span&gt;" style="shape=partialRectangle;html=1;whiteSpace=wrap;connectable=0;fillColor=none;top=0;left=0;bottom=0;right=0;align=left;spacingLeft=6;overflow=hidden;rounded=0;sketch=0;fontSize=20;fontColor=#143642;strokeColor=#0F8B8D;" parent="RN8sHEYMvWGkv_5H0akw-90" vertex="1">
                    <mxGeometry x="95" width="330" height="70" as="geometry">
                        <mxRectangle width="330" height="70" as="alternateBounds"/>
                    </mxGeometry>
                </mxCell>
                <mxCell id="RN8sHEYMvWGkv_5H0akw-93" value="" style="shape=tableRow;horizontal=0;startSize=0;swimlaneHead=0;swimlaneBody=0;top=0;left=0;bottom=0;right=0;collapsible=0;dropTarget=0;fillColor=none;points=[[0,0.5],[1,0.5]];portConstraint=eastwest;rounded=0;sketch=0;fontSize=20;fontColor=#143642;strokeColor=#0F8B8D;" parent="RN8sHEYMvWGkv_5H0akw-89" vertex="1">
                    <mxGeometry y="100" width="425" height="50" as="geometry"/>
                </mxCell>
                <mxCell id="RN8sHEYMvWGkv_5H0akw-94" value="2" style="shape=partialRectangle;html=1;whiteSpace=wrap;connectable=0;fillColor=none;top=0;left=0;bottom=0;right=0;overflow=hidden;rounded=0;sketch=0;fontSize=20;fontColor=#143642;strokeColor=#0F8B8D;" parent="RN8sHEYMvWGkv_5H0akw-93" vertex="1">
                    <mxGeometry width="95" height="50" as="geometry">
                        <mxRectangle width="95" height="50" as="alternateBounds"/>
                    </mxGeometry>
                </mxCell>
                <mxCell id="RN8sHEYMvWGkv_5H0akw-95" value="&lt;span style=&quot;text-align: center;&quot;&gt;clean_image =&lt;/span&gt;&lt;span style=&quot;text-align: center;&quot;&gt;return вычислителя второй раз&lt;/span&gt;&lt;span style=&quot;text-align: center;&quot;&gt;&lt;br&gt;&lt;/span&gt;" style="shape=partialRectangle;html=1;whiteSpace=wrap;connectable=0;fillColor=none;top=0;left=0;bottom=0;right=0;align=left;spacingLeft=6;overflow=hidden;rounded=0;sketch=0;fontSize=20;fontColor=#143642;strokeColor=#0F8B8D;" parent="RN8sHEYMvWGkv_5H0akw-93" vertex="1">
                    <mxGeometry x="95" width="330" height="50" as="geometry">
                        <mxRectangle width="330" height="50" as="alternateBounds"/>
                    </mxGeometry>
                </mxCell>
                <mxCell id="RN8sHEYMvWGkv_5H0akw-96" value="" style="shape=flexArrow;endArrow=classic;startArrow=classic;html=1;rounded=1;sketch=0;fontSize=20;fontColor=#143642;strokeColor=#A8201A;strokeWidth=1;fillColor=#FAE5C7;curved=0;entryX=-0.012;entryY=0.7;entryDx=0;entryDy=0;exitX=1;exitY=0.5;exitDx=0;exitDy=0;entryPerimeter=0;" parent="1" source="RN8sHEYMvWGkv_5H0akw-35" target="RN8sHEYMvWGkv_5H0akw-90" edge="1">
                    <mxGeometry width="100" height="100" relative="1" as="geometry">
                        <mxPoint x="385" y="1035" as="sourcePoint"/>
                        <mxPoint x="485" y="935" as="targetPoint"/>
                    </mxGeometry>
                </mxCell>
                <mxCell id="k-RO1JFTQZMesgFKk2mv-2" value="" style="edgeStyle=orthogonalEdgeStyle;rounded=0;orthogonalLoop=1;jettySize=auto;html=1;strokeColor=#FF3333;" parent="1" source="k-RO1JFTQZMesgFKk2mv-1" target="RN8sHEYMvWGkv_5H0akw-10" edge="1">
                    <mxGeometry relative="1" as="geometry"/>
                </mxCell>
                <mxCell id="k-RO1JFTQZMesgFKk2mv-1" value="Проверка валидности данных, &lt;br&gt;удаление пробелов" style="html=1;rounded=0;sketch=0;fontColor=#143642;strokeColor=#0F8B8D;fillColor=#FAE5C7;" parent="1" vertex="1">
                    <mxGeometry x="303.5" y="210" width="193" height="50" as="geometry"/>
                </mxCell>
                <mxCell id="k-RO1JFTQZMesgFKk2mv-3" value="&lt;div style=&quot;color: rgb(212 , 212 , 212) ; background-color: rgb(30 , 30 , 30) ; font-family: &amp;#34;consolas&amp;#34; , &amp;#34;courier new&amp;#34; , monospace ; font-size: 14px ; line-height: 19px&quot;&gt;&lt;div style=&quot;line-height: 19px&quot;&gt;'21/4*6+3*i+1:i-63-3/70:5/6+93/23+10*i*2:3*i+21/2*i*2*i'&lt;/div&gt;&lt;/div&gt;" style="text;html=1;strokeColor=none;fillColor=none;align=center;verticalAlign=middle;whiteSpace=wrap;rounded=0;sketch=0;fontColor=#143642;" parent="1" vertex="1">
                    <mxGeometry x="380.5" y="430" width="460" height="30" as="geometry"/>
                </mxCell>
                <mxCell id="k-RO1JFTQZMesgFKk2mv-6" value="&lt;font style=&quot;font-size: 15px;&quot;&gt;&lt;span style=&quot;font-style: normal; font-variant-ligatures: normal; font-variant-caps: normal; font-weight: 400; letter-spacing: normal; orphans: 2; text-indent: 0px; text-transform: none; widows: 2; word-spacing: 0px; -webkit-text-stroke-width: 0px; text-decoration-thickness: initial; text-decoration-style: initial; text-decoration-color: initial; color: rgb(212, 212, 212); font-family: Consolas, &amp;quot;Courier New&amp;quot;, monospace; text-align: center; background-color: rgb(30, 30, 30); float: none; display: inline !important;&quot;&gt;'&lt;/span&gt;&lt;span style=&quot;font-style: normal; font-variant-ligatures: normal; font-variant-caps: normal; font-weight: 400; letter-spacing: normal; orphans: 2; text-indent: 0px; text-transform: none; widows: 2; word-spacing: 0px; -webkit-text-stroke-width: 0px; text-decoration-thickness: initial; text-decoration-style: initial; text-decoration-color: initial; color: rgb(212, 212, 212); font-family: Consolas, &amp;quot;Courier New&amp;quot;, monospace; text-align: center; background-color: rgb(30, 30, 30);&quot;&gt;3-1'&lt;/span&gt;&lt;/font&gt;" style="text;whiteSpace=wrap;html=1;fontSize=16;fontColor=#D4D4D4;" parent="1" vertex="1">
                    <mxGeometry x="403.5" y="900" width="70" height="30" as="geometry"/>
                </mxCell>
                <mxCell id="k-RO1JFTQZMesgFKk2mv-8" value="1-й вызов&amp;nbsp;" style="text;html=1;strokeColor=none;fillColor=none;align=center;verticalAlign=middle;whiteSpace=wrap;rounded=0;labelBackgroundColor=none;fontSize=16;fontColor=#000000;" parent="1" vertex="1">
                    <mxGeometry x="156" y="860" width="80" height="30" as="geometry"/>
                </mxCell>
                <mxCell id="k-RO1JFTQZMesgFKk2mv-9" value="&lt;span style=&quot;color: rgb(0, 0, 0); font-family: Helvetica; font-size: 16px; font-style: normal; font-variant-ligatures: normal; font-variant-caps: normal; font-weight: 400; letter-spacing: normal; orphans: 2; text-align: center; text-indent: 0px; text-transform: none; widows: 2; word-spacing: 0px; -webkit-text-stroke-width: 0px; text-decoration-thickness: initial; text-decoration-style: initial; text-decoration-color: initial; float: none; display: inline !important;&quot;&gt;2-й вызов&amp;nbsp;&lt;/span&gt;" style="text;whiteSpace=wrap;html=1;fontSize=16;fontColor=#000000;" parent="1" vertex="1">
                    <mxGeometry x="310" y="900" width="100" height="30" as="geometry"/>
                </mxCell>
                <mxCell id="k-RO1JFTQZMesgFKk2mv-11" value="&lt;div style=&quot;text-align: center;&quot;&gt;&lt;font face=&quot;consolas, courier new, monospace&quot; color=&quot;#d4d4d4&quot;&gt;&lt;span style=&quot;font-size: 20px; background-color: rgb(30, 30, 30);&quot;&gt;Fraction(число,число)&lt;/span&gt;&lt;/font&gt;&lt;/div&gt;" style="text;whiteSpace=wrap;html=1;fontSize=16;fontColor=#000000;" parent="1" vertex="1">
                    <mxGeometry x="337.5" y="1055" width="140" height="40" as="geometry"/>
                </mxCell>
                <mxCell id="k-RO1JFTQZMesgFKk2mv-12" value="&lt;span style=&quot;color: rgb(212 , 212 , 212) ; font-family: &amp;#34;consolas&amp;#34; , &amp;#34;courier new&amp;#34; , monospace ; font-style: normal ; font-weight: 400 ; letter-spacing: normal ; text-align: center ; text-indent: 0px ; text-transform: none ; word-spacing: 0px ; background-color: rgb(30 , 30 , 30) ; float: none ; display: inline ; font-size: 14px&quot;&gt;'21/4*6-63-3/70:5/6+93/23+&lt;span&gt;10*2:3-21/2*2'&lt;/span&gt;&lt;br&gt;&lt;/span&gt;" style="text;whiteSpace=wrap;html=1;fontSize=16;fontColor=#000000;" parent="1" vertex="1">
                    <mxGeometry x="236" y="860" width="405" height="40" as="geometry"/>
                </mxCell>
                <mxCell id="k-RO1JFTQZMesgFKk2mv-13" value="&lt;span style=&quot;color: rgb(212, 212, 212); font-family: consolas, &amp;quot;courier new&amp;quot;, monospace; font-size: 20px; font-style: normal; font-variant-ligatures: normal; font-variant-caps: normal; font-weight: 400; letter-spacing: normal; orphans: 2; text-align: center; text-indent: 0px; text-transform: none; widows: 2; word-spacing: 0px; -webkit-text-stroke-width: 0px; background-color: rgb(30, 30, 30); text-decoration-thickness: initial; text-decoration-style: initial; text-decoration-color: initial; float: none; display: inline !important;&quot;&gt;str(число_число/число)&lt;/span&gt;" style="text;whiteSpace=wrap;html=1;fontSize=21;fontColor=#000000;" parent="1" vertex="1">
                    <mxGeometry x="641" y="1150" width="260" height="40" as="geometry"/>
                </mxCell>
                <mxCell id="k-RO1JFTQZMesgFKk2mv-21" value="" style="edgeStyle=orthogonalEdgeStyle;rounded=0;orthogonalLoop=1;jettySize=auto;html=1;fontSize=21;fontColor=#000000;strokeColor=#FF3333;strokeWidth=1;" parent="1" source="k-RO1JFTQZMesgFKk2mv-15" target="k-RO1JFTQZMesgFKk2mv-20" edge="1">
                    <mxGeometry relative="1" as="geometry"/>
                </mxCell>
                <mxCell id="k-RO1JFTQZMesgFKk2mv-15" value="Сборка и вывод результата, &lt;br&gt;продолжаем работу или нет" style="html=1;rounded=0;sketch=0;fontColor=#143642;strokeColor=#0F8B8D;fillColor=#FAE5C7;" parent="1" vertex="1">
                    <mxGeometry x="850" y="110" width="210" height="90" as="geometry"/>
                </mxCell>
                <mxCell id="k-RO1JFTQZMesgFKk2mv-16" value="&lt;b&gt;Антон&lt;/b&gt;" style="text;html=1;align=center;verticalAlign=middle;resizable=0;points=[];autosize=1;strokeColor=none;fillColor=none;fontSize=20;fontColor=#143642;" parent="1" vertex="1">
                    <mxGeometry x="1040" y="70" width="80" height="30" as="geometry"/>
                </mxCell>
                <mxCell id="k-RO1JFTQZMesgFKk2mv-17" value="&lt;div style=&quot;color: rgb(212, 212, 212); background-color: rgb(30, 30, 30); font-family: Consolas, &amp;quot;Courier New&amp;quot;, monospace; font-size: 14px; line-height: 19px;&quot;&gt;&lt;div style=&quot;line-height: 19px;&quot;&gt;Пометка в журнале работы(ввод,результат,время запуска)&lt;/div&gt;&lt;/div&gt;" style="text;html=1;strokeColor=none;fillColor=none;align=center;verticalAlign=middle;whiteSpace=wrap;rounded=0;sketch=0;fontColor=#143642;" parent="1" vertex="1">
                    <mxGeometry x="710" y="240" width="460" height="30" as="geometry"/>
                </mxCell>
                <mxCell id="k-RO1JFTQZMesgFKk2mv-20" value="End" style="ellipse;whiteSpace=wrap;html=1;rounded=0;sketch=0;fontColor=#143642;strokeColor=#0F8B8D;fillColor=#FAE5C7;" parent="1" vertex="1">
                    <mxGeometry x="885" y="10" width="140" height="70" as="geometry"/>
                </mxCell>
                <mxCell id="k-RO1JFTQZMesgFKk2mv-22" value="" style="edgeStyle=orthogonalEdgeStyle;rounded=0;orthogonalLoop=1;jettySize=auto;html=1;fontSize=21;fontColor=#000000;strokeColor=#FF3333;strokeWidth=1;entryX=1;entryY=0.5;entryDx=0;entryDy=0;exitX=0.007;exitY=0.434;exitDx=0;exitDy=0;exitPerimeter=0;" parent="1" source="k-RO1JFTQZMesgFKk2mv-15" target="RN8sHEYMvWGkv_5H0akw-7" edge="1">
                    <mxGeometry relative="1" as="geometry">
                        <mxPoint x="965" y="160" as="sourcePoint"/>
                        <mxPoint x="965" y="90" as="targetPoint"/>
                    </mxGeometry>
                </mxCell>
                <mxCell id="k-RO1JFTQZMesgFKk2mv-23" value="" style="endArrow=classic;html=1;rounded=0;fontSize=21;fontColor=#000000;strokeColor=#FF3333;strokeWidth=1;exitX=0;exitY=0.5;exitDx=0;exitDy=0;entryX=0;entryY=0.5;entryDx=0;entryDy=0;" parent="1" source="k-RO1JFTQZMesgFKk2mv-1" target="RN8sHEYMvWGkv_5H0akw-7" edge="1">
                    <mxGeometry width="50" height="50" relative="1" as="geometry">
                        <mxPoint x="840" y="380" as="sourcePoint"/>
                        <mxPoint x="890" y="330" as="targetPoint"/>
                        <Array as="points">
                            <mxPoint x="260" y="235"/>
                            <mxPoint x="260" y="145"/>
                        </Array>
                    </mxGeometry>
                </mxCell>
                <mxCell id="k-RO1JFTQZMesgFKk2mv-24" value="&lt;b&gt;Евгений&lt;/b&gt;" style="text;html=1;strokeColor=none;fillColor=none;align=center;verticalAlign=middle;whiteSpace=wrap;rounded=0;sketch=0;fontSize=20;fontColor=#143642;" parent="1" vertex="1">
                    <mxGeometry x="901" y="390" width="120" height="25" as="geometry"/>
                </mxCell>
                <mxCell id="2" value="&lt;br&gt;&lt;br&gt;&lt;div style=&quot;color: rgb(212 , 212 , 212) ; background-color: rgb(30 , 30 , 30) ; font-family: &amp;#34;consolas&amp;#34; , &amp;#34;courier new&amp;#34; , monospace ; font-weight: normal ; font-size: 14px ; line-height: 19px&quot;&gt;&lt;div&gt;&lt;span style=&quot;color: #d4d4d4&quot;&gt;'5_1/4&lt;/span&gt;&lt;span style=&quot;color: #d4d4d4 ; font-style: italic&quot;&gt;*6+3*&lt;/span&gt;&lt;span style=&quot;color: #d4d4d4&quot;&gt;i+1:i-63-3/70:5/6+4_1/23+10&lt;/span&gt;&lt;span style=&quot;color: #d4d4d4 ; font-style: italic&quot;&gt;*i*&lt;/span&gt;&lt;span style=&quot;color: #d4d4d4&quot;&gt;2:3&lt;/span&gt;&lt;span style=&quot;color: #d4d4d4 ; font-style: italic&quot;&gt;*i+10_1/2*&lt;/span&gt;&lt;span style=&quot;color: #d4d4d4&quot;&gt;i&lt;/span&gt;&lt;span style=&quot;color: #d4d4d4 ; font-style: italic&quot;&gt;*2*&lt;/span&gt;&lt;span style=&quot;color: #d4d4d4&quot;&gt;i'&lt;/span&gt;&lt;/div&gt;&lt;/div&gt;&lt;br&gt;" style="text;whiteSpace=wrap;html=1;" vertex="1" parent="1">
                    <mxGeometry x="-89.5" y="240" width="470" height="30" as="geometry"/>
                </mxCell>
            </root>
        </mxGraphModel>
    </diagram>
</mxfile>